<svg width="21" height="21" viewBox="0 0 21 21" fill="none" xmlns="http://www.w3.org/2000/svg">
<path id="Exclude" fill-rule="evenodd" clip-rule="evenodd" d="M17.5265 11.3485C17.6496 11.4715 17.7188 11.6385 17.7188 11.8125V19.0312C17.7188 19.553 17.5107 20.0543 17.1413 20.4225C16.7738 20.792 16.2724 21 15.75 21H5.25C4.99141 21.0002 4.73533 20.9494 4.49639 20.8505C4.25745 20.7516 4.04035 20.6066 3.8575 20.4238C3.67465 20.2409 3.52964 20.0238 3.43076 19.7849C3.33188 19.5459 3.28108 19.2898 3.28125 19.0312V11.8125C3.28125 11.6385 3.35039 11.4715 3.47346 11.3485C3.59653 11.2254 3.76345 11.1562 3.9375 11.1562H17.0625C17.2365 11.1562 17.4035 11.2254 17.5265 11.3485ZM17.1419 0.576844C17.5114 0.945657 17.7188 1.44638 17.7188 1.96875V7.875C17.7188 8.13354 17.6679 8.38956 17.569 8.6284C17.47 8.86724 17.3249 9.08422 17.1419 9.26691C16.7731 9.63638 16.2724 9.84375 15.75 9.84375H5.25C4.99146 9.84384 4.73544 9.79293 4.4966 9.69395C4.25776 9.59497 4.04078 9.44985 3.85809 9.26691C3.48863 8.89809 3.28125 8.39738 3.28125 7.875V1.96875C3.28116 1.71021 3.33207 1.45419 3.43105 1.21535C3.53003 0.976506 3.67515 0.759531 3.85809 0.576844C4.22691 0.207375 4.72762 1.12724e-07 5.25 1.12724e-07H15.75C16.0085 -8.74311e-05 16.2646 0.0508171 16.5034 0.1498C16.7422 0.248782 16.9592 0.3939 17.1419 0.576844ZM6.5154 3.21926C6.87379 2.85149 7.36166 2.63826 7.875 2.625C8.38834 2.63826 8.87621 2.85149 9.2346 3.21926C9.593 3.58703 9.79357 4.08023 9.79357 4.59375C9.79357 5.10727 9.593 5.60047 9.2346 5.96824C8.87621 6.33601 8.38834 6.54924 7.875 6.5625C7.36166 6.54924 6.87379 6.33601 6.5154 5.96824C6.157 5.60047 5.95643 5.10727 5.95643 4.59375C5.95643 4.08023 6.157 3.58703 6.5154 3.21926ZM11.7654 3.21926C12.1238 2.85149 12.6117 2.63826 13.125 2.625C13.6383 2.63826 14.1262 2.85149 14.4846 3.21926C14.843 3.58703 15.0436 4.08023 15.0436 4.59375C15.0436 5.10727 14.843 5.60047 14.4846 5.96824C14.1262 6.33601 13.6383 6.54924 13.125 6.5625C12.6117 6.54924 12.1238 6.33601 11.7654 5.96824C11.407 5.60047 11.2064 5.10727 11.2064 4.59375C11.2064 4.08023 11.407 3.58703 11.7654 3.21926ZM19.0312 11.1562H18.919C18.9919 11.3617 19.0312 11.5822 19.0312 11.8125V19.0312C19.2898 19.0313 19.5458 18.9804 19.7847 18.8815C20.0235 18.7825 20.2405 18.6374 20.4232 18.4544C20.7926 18.0856 21 17.5849 21 17.0625V13.125C21 12.6026 20.7926 12.1019 20.4232 11.7331C20.0543 11.3636 19.5536 11.1562 19.0312 11.1562ZM1.96875 11.1562H2.08097C2.00813 11.3617 1.96875 11.5822 1.96875 11.8125V19.0312C1.71021 19.0313 1.45419 18.9804 1.21535 18.8815C0.976506 18.7825 0.759531 18.6374 0.576844 18.4544C0.207375 18.0856 1.1303e-07 17.5849 1.1303e-07 17.0625V13.125C-8.75497e-05 12.8665 0.0508169 12.6104 0.1498 12.3716C0.248782 12.1328 0.3939 11.9158 0.576844 11.7331C0.945656 11.3636 1.44638 11.1562 1.96875 11.1562ZM9.14607 17.9453V17.4582L10.1374 15.9225C10.2101 15.8099 10.2778 15.7022 10.3406 15.5995C10.4067 15.4968 10.4596 15.3907 10.4992 15.2814C10.5422 15.1688 10.5637 15.0462 10.5637 14.9136C10.5637 14.7645 10.5372 14.6502 10.4844 14.5707C10.4315 14.4912 10.3489 14.4514 10.2365 14.4514C10.1308 14.4514 10.0482 14.4813 9.9887 14.5409C9.92922 14.6005 9.88792 14.6784 9.86479 14.7745C9.84496 14.8706 9.83505 14.9766 9.83505 15.0925V15.2615H9.16094V15.0826C9.16094 14.8441 9.19564 14.6353 9.26503 14.4564C9.33773 14.2742 9.45173 14.1317 9.60704 14.029C9.76235 13.9263 9.96557 13.8749 10.2167 13.8749C10.5604 13.8749 10.8181 13.9677 10.9899 14.1532C11.1618 14.3388 11.2477 14.5972 11.2477 14.9285C11.2477 15.0942 11.2246 15.245 11.1783 15.3808C11.132 15.5133 11.0709 15.6409 10.9949 15.7635C10.9189 15.8861 10.8363 16.012 10.7471 16.1412L9.92427 17.3936H11.1436V17.9453H9.14607ZM7.12507 17.9453V13.9197H8.81034V14.4365H7.85866V15.5945H8.60711V16.1064H7.85866V17.4383H8.82025V17.9453H7.12507ZM12.0956 17.826C12.2642 17.9419 12.4955 17.9999 12.7896 17.9999C13.0737 17.9999 13.2935 17.9486 13.4488 17.8459C13.6074 17.7398 13.7181 17.5957 13.7809 17.4135C13.8437 17.2279 13.8751 17.0159 13.8751 16.7773V16.4543H13.1712V16.8171C13.1712 16.9364 13.1646 17.0441 13.1514 17.1401C13.1382 17.2362 13.1051 17.3141 13.0523 17.3737C13.0027 17.43 12.9168 17.4582 12.7945 17.4582C12.6888 17.4582 12.6045 17.435 12.5417 17.3886C12.4823 17.3389 12.4409 17.2677 12.4178 17.1749C12.3947 17.0788 12.3831 16.9579 12.3831 16.8121V15.0627C12.3831 14.9401 12.3914 14.8308 12.4079 14.7347C12.4244 14.6353 12.4608 14.5575 12.5169 14.5011C12.5764 14.4415 12.669 14.4117 12.7945 14.4117C12.9201 14.4117 13.0077 14.4398 13.0572 14.4962C13.1101 14.5492 13.1415 14.6221 13.1514 14.7148C13.1646 14.8076 13.1712 14.9103 13.1712 15.023V15.3709H13.8751V15.0329C13.8751 14.801 13.842 14.5972 13.7759 14.4216C13.7099 14.246 13.5975 14.1118 13.4389 14.0191C13.2836 13.923 13.0671 13.8749 12.7896 13.8749C12.4955 13.8749 12.2642 13.9296 12.0956 14.0389C11.9304 14.1483 11.8148 14.304 11.7487 14.5061C11.6826 14.7082 11.6495 14.9468 11.6495 15.2218V16.6581C11.6495 16.9198 11.6826 17.1517 11.7487 17.3538C11.8148 17.5526 11.9304 17.71 12.0956 17.826Z" fill="white"/>
</svg>
