<svg width="24" height="21" viewBox="0 0 24 21" fill="none" xmlns="http://www.w3.org/2000/svg">
<path id="Vector" d="M3 13.5L9 13.5L9 18C9 19.6545 10.3455 21 12 21L14.25 21C14.4489 21 14.6397 20.921 14.7803 20.7803C14.921 20.6397 15 20.4489 15 20.25L15 16.6995L17.901 11.622C17.9663 11.5089 18.0004 11.3806 18 11.25L18 0.749999C18 0.551088 17.921 0.360321 17.7803 0.219669C17.6397 0.0790171 17.4489 -5.72714e-07 17.25 -5.90104e-07L5.2125 -1.64246e-06C4.63231 0.000213837 4.06462 0.168667 3.57822 0.484949C3.09182 0.801233 2.70756 1.25177 2.472 1.782L0.0660012 7.1955C0.0225365 7.29113 3.36143e-05 7.39495 1.18021e-06 7.5L9.17939e-07 10.5C7.73298e-07 12.1545 1.3455 13.5 3 13.5ZM24 11.25L24 0.75C24 0.551088 23.921 0.360321 23.7803 0.219669C23.6397 0.0790176 23.4489 -4.81776e-08 23.25 -6.55671e-08L19.5 -3.93402e-07L19.5 12L23.25 12C23.4489 12 23.6397 11.921 23.7803 11.7803C23.921 11.6397 24 11.4489 24 11.25Z" fill="black"/>
</svg>
