<svg width="48" height="66" viewBox="0 0 48 66" fill="none" xmlns="http://www.w3.org/2000/svg">
<path d="M46.0249 20.8696H41.9999C41.9726 20.8498 41.9446 20.8312 41.9174 20.8111C41.7777 20.7078 41.6099 20.4755 41.6208 20.3166C41.7086 19.0295 41.8381 17.7462 41.9496 16.4611C41.9801 16.1091 42.0827 15.7218 41.9925 15.4099C41.8523 14.9252 41.9707 14.6424 42.2743 14.3271C42.4199 14.1758 42.5682 13.8499 42.5195 13.6716C42.3975 13.2251 42.1641 12.8175 41.9746 12.3946C41.8893 12.2044 41.7333 12.0178 41.7278 11.8251C41.7014 10.9157 41.716 10.0047 41.716 9.20455C42.981 9.48492 44.2213 9.71743 45.4403 10.0501C45.9742 10.1959 46.1979 9.94596 46.4034 9.47565C46.3825 9.39786 46.3681 9.34389 46.3472 9.2661C46.0739 9.07021 45.8169 8.81868 45.5189 8.70661C44.8275 8.4466 44.1001 8.30653 43.4131 8.03436C42.6366 7.72668 42.5981 7.49026 43.0674 6.68523C42.8398 6.38576 42.6158 6.07798 42.3795 5.7827C41.8583 5.13134 41.5869 4.40202 41.6894 3.49576C41.7472 2.98432 41.7319 2.45601 41.6999 1.93926C41.6444 1.04432 41.1618 0.288479 40.571 0.0962456C39.4423 -0.271073 38.3967 0.440716 38.2252 1.75886C38.1446 2.37828 38.2072 3.02024 38.1856 3.65113C38.132 5.21739 38.0066 6.78535 38.05 8.34761C38.0608 8.73644 38.0046 8.90275 37.7722 9.10088C37.8325 9.11162 37.8929 9.1224 37.9532 9.13318C37.9114 9.37974 37.8696 9.62629 37.8465 9.762C37.9466 10.0109 38.0916 10.1945 38.0653 10.3381C37.97 10.8606 37.849 11.3835 37.6789 11.8805C37.4155 12.6502 37.2872 13.4442 37.269 14.2596C37.2659 14.3976 37.4231 14.6399 37.5349 14.6642C38.0092 14.7668 38.4944 14.8054 39.0405 14.8758C39.1844 15.178 39.3818 15.5542 39.5453 15.9485C39.6795 16.2719 39.6256 16.508 39.3107 16.726C38.5648 17.2423 37.8463 17.8111 37.1316 18.3825C36.6804 18.7433 36.3154 19.2141 35.6582 19.1623C35.1767 19.1244 34.8767 19.8015 35.6513 20.5806C35.5775 20.8067 35.6308 20.6435 35.557 20.8696H32.9792C32.2162 20.8696 31.5977 21.5698 31.5977 22.4337V65.1586C31.5977 65.6002 31.9139 65.9581 32.3039 65.9581H46.7507C47.1128 65.9581 47.4063 65.6258 47.4063 65.2158V22.4337C47.4063 21.5698 46.7878 20.8696 46.0249 20.8696ZM37.2285 19.9529C38.205 19.0837 39.3381 18.4398 40.4931 17.6455C40.5148 17.9935 40.5362 18.1299 40.5296 18.2645C40.4866 19.1315 40.7034 20.0165 40.4275 20.8696H36.9258C36.9317 20.4949 37.0012 20.1552 37.2285 19.9529ZM44.8001 45.5967C44.8001 45.6674 44.7495 45.7247 44.687 45.7247H41.4807C41.4182 45.7247 41.3675 45.6674 41.3675 45.5967V42.9221C41.3675 41.0537 40.6414 40.3437 39.4862 40.3437C38.3309 40.3437 37.6048 41.0537 37.6048 42.9221V57.0476C37.6048 58.9161 38.3309 59.5887 39.4862 59.5887C40.6414 59.5887 41.3675 58.9161 41.3675 57.0476V53.4388C41.3675 53.3681 41.4182 53.3108 41.4807 53.3108H44.687C44.7495 53.3108 44.8001 53.3681 44.8001 53.4388V56.7861C44.8001 60.9714 42.9518 63.3631 39.3871 63.3631C35.8225 63.3631 33.9742 60.9714 33.9742 56.7861V43.1837C33.9742 38.9983 35.8225 36.6067 39.3871 36.6067C42.9518 36.6067 44.8001 38.9983 44.8001 43.1837V45.5967Z" fill="#86CDB6"/>
<path d="M30.229 23.8519H24.9008C24.8216 23.6853 24.8007 23.4728 24.844 23.1942C24.9076 22.7853 24.9963 22.3753 25.1235 21.9866C25.341 21.3213 25.7235 20.6919 25.8062 20.0116C25.9117 19.1445 25.8981 18.2129 25.7251 17.3642C25.6062 16.7811 25.718 16.0206 25.1094 15.596C24.999 15.5189 24.9871 15.0964 25.0544 14.884C25.5644 13.2746 25.4131 11.7223 24.8419 10.1761C24.7377 9.894 24.7672 9.54866 24.7276 9.15993C25.4498 9.50116 25.4322 9.4872 25.808 8.88159C26.2424 8.1814 26.2691 7.38993 26.334 6.58233C26.3832 5.96913 26.0707 5.63048 25.6947 5.48659C25.2073 5.30008 24.6581 5.24101 24.1394 5.26032C23.5778 5.28121 23.1115 5.85607 23.0357 6.51353C22.9224 7.49757 22.8447 8.48685 22.7524 9.474C22.7506 9.49331 22.7626 9.51631 22.7571 9.53289C22.668 9.80127 22.5621 10.0638 22.4904 10.338C22.3952 10.7024 22.1612 11.1696 22.2759 11.4282C22.6856 12.3518 22.4889 13.2763 22.4303 14.2011C22.4171 14.4095 22.2096 14.5951 22.1188 14.8063C22.0251 15.0245 21.9133 15.257 21.8992 15.4903C21.8577 16.1723 21.844 16.8582 21.853 17.542C21.8586 17.974 21.7013 18.469 22.2364 18.7317C22.5048 18.8634 22.7076 19.1663 22.978 19.4288C21.4273 20.3126 21.0933 22.3182 19.8911 23.5163C20.0034 23.6371 20.1491 23.7498 20.3147 23.8519H17.1834C16.4204 23.8519 15.8019 24.5522 15.8019 25.416V65.216C15.8019 65.626 16.0954 65.9583 16.4575 65.9583H30.9548C31.3169 65.9583 31.6105 65.626 31.6105 65.216V25.416C31.6105 24.5522 30.992 23.8519 30.229 23.8519ZM23.3753 8.25899C23.8012 8.60964 23.7791 8.68617 23.0105 9.39683C23.1301 9.02376 23.2497 8.65069 23.3753 8.25899ZM21.9629 23.4774C21.4672 23.0224 21.3863 22.8202 21.7847 22.2858C22.2265 21.6932 22.7276 21.1555 23.2187 20.6123C23.5648 20.2294 23.9374 19.8771 24.4161 19.3915C24.4589 19.695 24.6218 20.0637 24.5226 20.2732C23.9928 21.3917 24.0319 22.6498 23.8534 23.8519H22.2633C22.1711 23.7114 22.0762 23.5813 21.9629 23.4774ZM21.9168 59.3694C21.924 59.4317 21.9731 59.4769 22.0286 59.4769H28.6844C28.7469 59.4769 28.7975 59.5342 28.7975 59.605V63.0857C28.7975 63.1564 28.7469 63.2138 28.6844 63.2138H18.4148C18.3523 63.2138 18.3016 63.1564 18.3016 63.0857V60C18.3016 52.302 25.497 51.0314 25.497 43.4828C25.497 41.1286 24.7708 40.4933 23.6156 40.4933C22.4604 40.4933 21.7343 41.2033 21.7343 43.0718V45.7463C21.7343 45.8171 21.6837 45.8745 21.6212 45.8745H18.4148C18.3523 45.8745 18.3016 45.8171 18.3016 45.7463V43.3333C18.3016 39.148 20.15 36.7564 23.7147 36.7564C27.2793 36.7564 29.1276 39.148 29.1276 43.3333C29.1276 51.5546 21.8993 54.6189 21.8993 58.9163C21.8993 59.0674 21.8993 59.2184 21.9168 59.3694Z" fill="#6ACAD1"/>
<path d="M14.4271 27.4673H8.20701C8.25885 26.4286 8.29615 25.3893 8.33891 24.3579C8.57659 24.2946 8.76834 24.1887 8.95138 24.2053C9.46598 24.2522 9.5303 23.9593 9.48133 23.477C9.31309 21.82 9.16516 20.1604 8.99501 18.3475C10.1036 18.9727 10.8042 18.1587 11.5988 17.6299C11.517 17.4442 11.4731 17.2231 11.3514 17.103C11.238 16.9912 11.0042 16.8914 10.8882 16.9502C9.88584 17.4579 9.2292 17.3157 8.50523 16.4332C8.12812 15.9734 7.67751 15.6233 8.32246 14.9447C8.60164 14.6509 8.65034 14.0763 8.79173 13.6643C8.62109 13.3437 8.47753 12.9413 8.23114 12.6506C8.01059 12.3904 7.68777 12.1199 7.39065 12.0883C6.65346 12.01 6.38306 12.7437 5.99172 13.2849C5.91528 13.4611 5.99058 13.6877 5.99058 13.6877C6.02924 13.6952 6.07881 13.8989 6.05677 13.9931C5.96696 14.377 6.02849 14.6562 6.32814 14.9163C6.43983 15.0133 6.4943 15.3841 6.42106 15.5332C6.03299 16.3232 5.57969 17.0718 5.18008 17.8551C4.6904 18.8149 4.23232 19.7954 3.75879 20.7658C3.57728 21.1378 3.52379 21.5391 3.89834 21.7339C4.00993 21.7919 4.32407 21.4629 4.48881 21.254C4.83157 20.8193 5.13651 20.3464 5.51286 19.8095C5.42316 20.9887 5.33191 22.0101 5.27684 23.0339C5.26253 23.3002 5.28256 23.7149 5.4239 23.8162C5.74179 24.044 6.13907 24.1946 6.51601 24.2355C6.98731 24.2868 7.09155 24.5887 7.143 25.083C6.3658 25.4239 6.06857 26.2497 5.71702 27.0281C5.65316 27.1696 5.58684 27.3152 5.49661 27.4346C5.48841 27.4455 5.47963 27.4564 5.4711 27.4673H1.38148C0.618508 27.4673 0 28.1676 0 29.0314V65.2158C0 65.6258 0.293543 65.9581 0.655647 65.9581H15.153C15.5151 65.9581 15.8086 65.6258 15.8086 65.2158V29.0314C15.8086 28.1676 15.1901 27.4673 14.4271 27.4673ZM7.04612 26.7383C7.07196 26.9989 7.09535 27.2348 7.11841 27.4673H6.53148C6.69231 27.2395 6.84953 27.0168 7.04612 26.7383ZM13.1521 40.5145C13.1521 40.5852 13.1014 40.6425 13.0389 40.6425H6.99406C6.93158 40.6425 6.88094 40.6999 6.88094 40.7706V47.8015C6.88094 47.8722 6.93158 47.9296 6.99406 47.9296H11.7517C11.8142 47.9296 11.8648 47.9869 11.8648 48.0577V51.5384C11.8648 51.6091 11.8142 51.6664 11.7517 51.6664H6.99406C6.93158 51.6664 6.88094 51.7238 6.88094 51.7945V59.1991C6.88094 59.2699 6.93158 59.3272 6.99406 59.3272H13.0389C13.1014 59.3272 13.1521 59.3845 13.1521 59.4553V62.936C13.1521 63.0067 13.1014 63.0641 13.0389 63.0641H3.36332C3.30085 63.0641 3.2502 63.0067 3.2502 62.936V37.0338C3.2502 36.963 3.30085 36.9057 3.36332 36.9057H13.0389C13.1014 36.9057 13.1521 36.963 13.1521 37.0338V40.5145Z" fill="#0490BB"/>
</svg>
