<svg width="92" height="92" viewBox="0 0 92 92" fill="none" xmlns="http://www.w3.org/2000/svg">
<path fill-rule="evenodd" clip-rule="evenodd" d="M92 46C92 71.4051 71.4051 92 46 92C20.5949 92 0 71.4051 0 46C0 20.5949 20.5949 0 46 0C71.4051 0 92 20.5949 92 46ZM62.7426 49.0441C62.7426 48.6404 62.5823 48.2533 62.2968 47.9679C62.0114 47.6824 61.6243 47.5221 61.2206 47.5221H30.7794C30.3757 47.5221 29.9886 47.6824 29.7032 47.9679C29.4177 48.2533 29.2574 48.6404 29.2574 49.0441V65.7868C29.257 66.3865 29.3748 66.9805 29.6041 67.5346C29.8334 68.0888 30.1698 68.5923 30.5939 69.0164C31.018 69.4405 31.5215 69.7768 32.0757 70.0062C32.6298 70.2355 33.2238 70.3533 33.8235 70.3529H58.1765C59.388 70.3529 60.5509 69.8705 61.4032 69.0135C62.2602 68.1597 62.7426 66.9968 62.7426 65.7868V49.0441ZM62.7426 26.2132C62.7426 25.0017 62.2617 23.8403 61.4048 22.9849C60.981 22.5606 60.4778 22.2241 59.9239 21.9945C59.3699 21.7649 58.7761 21.6469 58.1765 21.6471H33.8235C32.612 21.6471 31.4506 22.128 30.5952 22.9849C30.1709 23.4087 29.8344 23.9119 29.6048 24.4658C29.3752 25.0198 29.2571 25.6136 29.2574 26.2132V39.9118C29.2574 41.1233 29.7383 42.2847 30.5952 43.1401C31.019 43.5644 31.5222 43.9009 32.0761 44.1305C32.6301 44.3601 33.2239 44.4781 33.8235 44.4779H58.1765C59.388 44.4779 60.5494 43.997 61.4048 43.1401C61.8291 42.7163 62.1656 42.2131 62.3952 41.6591C62.6248 41.1052 62.7429 40.5114 62.7426 39.9118V26.2132ZM39.9118 27.7353C38.7211 27.766 37.5896 28.2606 36.7584 29.1136C35.9272 29.9666 35.462 31.1105 35.462 32.3015C35.462 33.4925 35.9272 34.6364 36.7584 35.4894C37.5896 36.3423 38.7211 36.8369 39.9118 36.8676C41.1024 36.8369 42.2339 36.3423 43.0651 35.4894C43.8964 34.6364 44.3616 33.4925 44.3616 32.3015C44.3616 31.1105 43.8964 29.9666 43.0651 29.1136C42.2339 28.2606 41.1024 27.766 39.9118 27.7353ZM52.0882 27.7353C50.8976 27.766 49.7661 28.2606 48.9349 29.1136C48.1036 29.9666 47.6384 31.1105 47.6384 32.3015C47.6384 33.4925 48.1036 34.6364 48.9349 35.4894C49.7661 36.3423 50.8976 36.8369 52.0882 36.8676C53.2789 36.8369 54.4104 36.3423 55.2416 35.4894C56.0728 34.6364 56.538 33.4925 56.538 32.3015C56.538 31.1105 56.0728 29.9666 55.2416 29.1136C54.4104 28.2606 53.2789 27.766 52.0882 27.7353ZM65.5265 47.5221H65.7868C66.9983 47.5221 68.1597 48.003 69.0151 48.8599C69.872 49.7153 70.3529 50.8767 70.3529 52.0882V61.2206C70.3529 62.4321 69.872 63.5935 69.0151 64.4489C68.5913 64.8732 68.0881 65.2098 67.5341 65.4393C66.9802 65.6689 66.3864 65.787 65.7868 65.7868V49.0441C65.7868 48.5099 65.6954 47.9985 65.5265 47.5221ZM26.4735 47.5221H26.2132C25.0017 47.5221 23.8403 48.003 22.9849 48.8599C22.5606 49.2837 22.2241 49.7869 21.9945 50.3409C21.7649 50.8948 21.6469 51.4886 21.6471 52.0882V61.2206C21.6471 62.4321 22.128 63.5935 22.9849 64.4489C23.4087 64.8732 23.9119 65.2098 24.4658 65.4393C25.0198 65.6689 25.6136 65.787 26.2132 65.7868V49.0441C26.2132 48.5099 26.3046 47.9985 26.4735 47.5221ZM42.0196 64.7738V63.2829L44.9339 58.5818C45.1476 58.237 45.3467 57.9073 45.5313 57.5929C45.7256 57.2785 45.881 56.9539 45.9976 56.6192C46.1238 56.2744 46.187 55.8991 46.187 55.4934C46.187 55.037 46.1093 54.6871 45.9538 54.4437C45.7984 54.2002 45.5556 54.0785 45.2253 54.0785C44.9144 54.0785 44.6716 54.1698 44.4967 54.3524C44.3219 54.5349 44.2004 54.7733 44.1324 55.0674C44.0742 55.3616 44.045 55.6861 44.045 56.0411V56.5584H42.0633V56.0107C42.0633 55.2804 42.1653 54.6414 42.3693 54.0937C42.583 53.5359 42.9182 53.0998 43.3747 52.7854C43.8313 52.4709 44.4287 52.3137 45.167 52.3137C46.1773 52.3137 46.935 52.5977 47.4401 53.1657C47.9452 53.7337 48.1978 54.5248 48.1978 55.5391C48.1978 56.0462 48.1298 56.5077 47.9938 56.9235C47.8578 57.3292 47.6781 57.7197 47.4547 58.095C47.2312 58.4702 46.9884 58.8557 46.7261 59.2512L44.3073 63.0851H47.8918V64.7738H42.0196ZM36.0784 64.7738V52.4506H41.0326V54.0329H38.235V57.5777H40.4352V59.1447H38.235V63.222H41.0618V64.7738H36.0784ZM50.6905 64.4087C51.1859 64.7637 51.8659 64.9412 52.7305 64.9412C53.5659 64.9412 54.2119 64.784 54.6684 64.4696C55.1347 64.145 55.4601 63.7038 55.6447 63.1459C55.8293 62.578 55.9216 61.9288 55.9216 61.1986V60.2097H53.8525V61.3203C53.8525 61.6854 53.833 62.0151 53.7942 62.3092C53.7553 62.6033 53.6582 62.8417 53.5027 63.0242C53.357 63.1967 53.1045 63.2829 52.745 63.2829C52.4342 63.2829 52.1865 63.2119 52.0019 63.0699C51.8271 62.9177 51.7056 62.6997 51.6376 62.4157C51.5696 62.1216 51.5356 61.7514 51.5356 61.3051V55.9498C51.5356 55.5745 51.5599 55.2398 51.6085 54.9457C51.6571 54.6414 51.7639 54.4031 51.9291 54.2307C52.1039 54.0481 52.3759 53.9568 52.745 53.9568C53.1142 53.9568 53.3716 54.043 53.5173 54.2155C53.6727 54.3777 53.765 54.6009 53.7942 54.8849C53.833 55.1688 53.8525 55.4833 53.8525 55.8281V56.8931H55.9216V55.8585C55.9216 55.1486 55.8244 54.5248 55.6301 53.9872C55.4359 53.4497 55.1056 53.0389 54.6393 52.7549C54.1827 52.4608 53.5465 52.3137 52.7305 52.3137C51.8659 52.3137 51.1859 52.4811 50.6905 52.8158C50.2048 53.1505 49.8648 53.6272 49.6705 54.2459C49.4762 54.8646 49.3791 55.5948 49.3791 56.4367V60.8335C49.3791 61.6347 49.4762 62.3447 49.6705 62.9634C49.8648 63.5719 50.2048 64.0537 50.6905 64.4087Z" fill="#057FA5"/>
</svg>
