<svg width="24" height="21" viewBox="0 0 24 21" fill="none" xmlns="http://www.w3.org/2000/svg">
<path id="Vector" d="M21 7.5H15V3C15 1.3455 13.6545 0 12 0H9.75C9.55109 0 9.36032 0.0790176 9.21967 0.21967C9.07902 0.360322 9 0.551088 9 0.75V4.3005L6.099 9.378C6.03374 9.49109 5.99958 9.61943 6 9.75V20.25C6 20.4489 6.07902 20.6397 6.21967 20.7803C6.36032 20.921 6.55109 21 6.75 21H18.7875C19.3677 20.9998 19.9354 20.8313 20.4218 20.515C20.9082 20.1988 21.2924 19.7482 21.528 19.218L23.934 13.8045C23.9775 13.7089 24 13.605 24 13.5V10.5C24 8.8455 22.6545 7.5 21 7.5ZM0 9.75V20.25C0 20.4489 0.0790176 20.6397 0.21967 20.7803C0.360322 20.921 0.551088 21 0.75 21H4.5V9H0.75C0.551088 9 0.360322 9.07902 0.21967 9.21967C0.0790176 9.36032 0 9.55109 0 9.75Z" fill="#D9D9D9"/>
</svg>
