<svg width="20" height="14" viewBox="0 0 20 14" fill="none" xmlns="http://www.w3.org/2000/svg">
<path fill-rule="evenodd" clip-rule="evenodd" d="M19.6 0.200004C19.7051 0.278797 19.7936 0.377512 19.8605 0.490511C19.9274 0.60351 19.9714 0.728581 19.99 0.858583C20.0085 0.988585 20.0013 1.12097 19.9687 1.24819C19.9361 1.3754 19.8788 1.49495 19.8 1.6L13.8 9.60001C13.6466 9.80457 13.4207 9.94261 13.1687 9.98576C12.9167 10.0289 12.6577 9.97389 12.445 9.832L7.232 6.357L1.8 13.6C1.72121 13.7051 1.62249 13.7936 1.50949 13.8605C1.39649 13.9274 1.27142 13.9714 1.14142 13.99C1.01142 14.0085 0.879032 14.0013 0.751819 13.9687C0.624606 13.9361 0.505058 13.8788 0.4 13.8C0.294943 13.7212 0.206433 13.6225 0.139525 13.5095C0.0726178 13.3965 0.0286223 13.2714 0.0100506 13.1414C-0.00852115 13.0114 -0.00130532 12.879 0.0312863 12.7518C0.0638779 12.6246 0.121207 12.5051 0.2 12.4L6.2 4.4C6.35338 4.19544 6.5793 4.0574 6.83131 4.01425C7.08333 3.9711 7.3423 4.02612 7.555 4.168L12.768 7.643L18.2 0.400004C18.3591 0.187831 18.596 0.0475619 18.8586 0.0100546C19.1211 -0.0274527 19.3878 0.0408742 19.6 0.200004Z" fill="black"/>
</svg>
