<svg width="25" height="20" viewBox="0 0 25 20" fill="none" xmlns="http://www.w3.org/2000/svg">
<path d="M0.581395 18.8733C1.09819 19.6244 2.00258 20 2.77778 20C3.16537 20 3.42377 20 3.81137 19.7496L23.1912 12.4889C24.354 12.1134 25 11.1119 25 9.98523C25 8.85857 24.354 7.85709 23.1912 7.48154L3.81137 0.220831C2.64858 -0.279907 1.35659 0.0956472 0.581395 1.09712C-0.193798 1.97342 -0.193798 3.35045 0.581395 4.35192L4.71576 9.98523L0.581395 15.6185C-0.193798 16.62 -0.193798 17.997 0.581395 18.8733ZM2.64858 17.1208L7.04134 11.2371H15.0517C15.8269 11.2371 16.3437 10.7363 16.3437 9.98523C16.3437 9.23412 15.8269 8.73339 15.0517 8.73339H7.04134L2.64858 2.84971C2.64858 2.84971 2.51938 2.72452 2.64858 2.59934C2.64858 2.47415 2.77778 2.47415 2.77778 2.47415H2.90698L22.1576 9.73486C22.1576 9.73486 22.2868 9.73486 22.2868 9.98523C22.2868 10.2356 22.1576 10.2356 22.1576 10.2356L2.90698 17.4963C2.90698 17.4963 2.77778 17.6215 2.64858 17.3711C2.51938 17.2459 2.64858 17.1208 2.64858 17.1208Z" fill="#057FA5"/>
</svg>
